<?xml version='1.0' encoding='ISO-8859-1' ?>
<!-- Generator: Savage Cad2Svg Converter -->
<!DOCTYPE svg PUBLIC "-//W3C//DTD SVG 20010904//EN" "http://www.w3.org/TR/2001/REC-SVG-20010904/DTD/svg10.dtd" [
  <!ENTITY Layer_1_GRAPHICS "color:#000000;stroke-width:.0000000000001;stroke:currentColor;fill:none">
  <!ENTITY Layer_1_COMPNAME "color:#FF0000;stroke-width:.0000000000001;stroke:currentColor;fill:none">
  <!ENTITY Layer_1_WCOLOR "color:#00FFFF;stroke-width:.0000000000001;stroke:currentColor;fill:none">
  <!ENTITY Layer_1_CONN "color:#00FF00;stroke-width:.0000000000001;stroke:currentColor;fill:none">
  <!ENTITY Layer_1_BESTVIEW "color:#FFFF00;stroke-width:.0000000000001;stroke:currentColor;fill:none">
  <!ENTITY Def_Layer_1_0 "stroke-width:.0000000000001; stroke:currentColor;fill:none">
  <!ENTITY Layer_1_REF "color:#00FF00;stroke-width:.0000000000001;stroke:currentColor;fill:none">
  <!ENTITY Layer_1_GROUND "color:#FFFF00;stroke-width:.0000000000001;stroke:currentColor;fill:none">
  <!ENTITY Layer_1_COMPLOC "color:#00FF00;stroke-width:.0000000000001;stroke:currentColor;fill:none">
  <!ENTITY Layer_1_0 "color:#000000;stroke-width:.0000000000001;stroke:currentColor;fill:none">
  <!ENTITY st1 "color:#000000;stroke:currentColor;stroke-width:0.02400000000000;">
  <!ENTITY st2 "color:#000000;stroke:currentColor;stroke-width:0.01000000000000;">
  <!ENTITY st4 "font-family:Arial;font-size:0.125px;text-anchor:start;color:#000000;fill:currentColor;stroke-width:0">
  <!ENTITY st6 "font-family:Arial;font-size:0.125px;text-anchor:end;color:#000000;fill:currentColor;stroke-width:0">
  <!ENTITY st7 "font-family:Arial;font-size:0.125px;text-anchor:middle;color:#000000;fill:currentColor;stroke-width:0">
  <!ENTITY st11 "stroke-width:0.03128100000000;">
  <!ENTITY st12 "color:#000000">
  <!ENTITY st13 "color:#0000FF;stroke:currentColor;stroke-width:0.02500000000000;">
  <!ENTITY st14 "color:#000000;stroke:currentColor;stroke-width:0.01250000000000;">
  <!ENTITY st16 "color:#B28600;stroke:currentColor;stroke-width:0.02500000000000;">
  <!ENTITY st17 "color:#FFFF00;stroke:currentColor;stroke-width:0.02500000000000;">
  <!ENTITY st18 "color:#323232;stroke:currentColor;stroke-width:0.02500000000000;">
  <!ENTITY st20 "color:#FFFF00;stroke:currentColor;stroke-width:0.01650000000000;">
  <!ENTITY st21 "color:#323232;stroke:currentColor;stroke-width:0.00850000000000;">
  <!ENTITY st22 "color:#0000FF;stroke:currentColor;stroke-width:0.01650000000000;">
  <!ENTITY st23 "color:#B28600;stroke:currentColor;stroke-width:0.00850000000000;">
  <!ENTITY st24 "color:#000000;stroke:currentColor;stroke-width:0.00625000000000;">
  <!ENTITY st25 "color:#AFAFAF;stroke:currentColor;stroke-width:0.01650000000000;">
  <!ENTITY st26 "color:#D2D2D2;stroke:currentColor;stroke-width:0.00850000000000;">
  <!ENTITY st27 "color:#FF0000;stroke:currentColor;stroke-width:0.00850000000000;">
  <!ENTITY st28 "color:#B28600;stroke:currentColor;stroke-width:0.01650000000000;">
  <!ENTITY st29 "color:#FF0000;stroke:currentColor;stroke-width:0.01650000000000;">
  <!ENTITY st30 "color:#FFFF00;stroke:currentColor;stroke-width:0.00850000000000;">
  <!ENTITY st31 "color:#323232;stroke:currentColor;stroke-width:0.01650000000000;">
  <!ENTITY st32 "color:#FF00FF;stroke:currentColor;stroke-width:0.01650000000000;">
  <!ENTITY st34 "color:#FF00FF;stroke:currentColor;stroke-width:0.00850000000000;">
  <!ENTITY st36 "color:#000000;stroke:currentColor;stroke-width:0.04200000000000;">
  <!ENTITY st37 "color:#39E500;stroke:currentColor;stroke-width:0.00850000000000;">
  <!ENTITY st38 "color:#000000;stroke:currentColor;fill:currentColor;fill-rule:nonzero">
  <!ENTITY st39 "color:#000000;stroke:currentColor;stroke-width:0.01008000000000;">
  <!ENTITY st40 "fill:currentColor;fill-rule:nonzero">
  <!ENTITY st41 "stroke-width:0.01000000000000;">
  <!ENTITY st42 "stroke:#000000">
]>
<?AdobeSVGViewer save="disable"?>
<svg id="svgAll" width="900" xmlns="http://www.w3.org/2000/svg" height="1100" viewBox="-0.725 -18.9 16.24 19.8" xmlns:cs="http://www.savagesoftware.com/cad2svg" xml:space="preserve" xmlns:xlink="http://www.w3.org/1999/xlink" text-rendering="optimizeSpeed" image-rendering="optimizeSpeed" shape-rendering="optimizeSpeed" preserveAspectRatio="xMidYMid">
<rect x="-0.725" y="-18.9" fill="#FFFFFF" width="16.24" height="19.8"/>
<defs>
<g id="SP2_BLK_1_20">
<g id="Def_Layer_1_0" style="&Def_Layer_1_0;">
<g id="Lwpline_9">
<path d="M-0.015641 0 A0.015641 0.015641 0 0 0 0.015641 0 A0.015641 0.015641 0 0 0 -0.015641 0 " style="&st11;"/>
</g>
</g>
</g>
<g id="S2_BLK_1_28">
<g id="Def_Layer_1_0" style="&Def_Layer_1_0;">
<g id="INSERT_11">
<g transform="matrix(1 0 0 1 0.195039 0.337359)">
<use xlink:href="#SP2_BLK_1_20"/>
</g>
</g>
<g id="INSERT_12">
<g transform="matrix(1 0 0 1 -0.194642 0.337588)">
<use xlink:href="#SP2_BLK_1_20"/>
</g>
</g>
<g id="Lwpline_158">
<path d="M-0.015641 0 A0.015641 0.015641 0 0 0 0.015641 0 A0.015641 0.015641 0 0 0 -0.015641 0 " style="&st11;"/>
</g>
<polygon id="SOLID_7" style="&st40;" points="-0.157565 0.226977 -0.116601 0.250628 -0.178709 0.310901 -0.178709 0.310901"/>
<g id="Lwpline_159">
<path d="M-0.137083 0.238802 L0 0 " style="&st41;"/>
</g>
</g>
</g>
</defs>
<g>
<g id="Layer_1_GRAPHICS" style="&Layer_1_GRAPHICS;">
<g id="Lwpline_1">
<path d="M0 0 L14.5 0 L14.5 -18 L0 -18 L0 0 " style="&st1;"/>
</g>
<g id="Lwpline_2">
<path d="M11.469492 -17.535468 L11.344492 -17.535468 M11.281992 -17.535468 L11.156992 -17.535468 M11.094492 -17.535468 L10.969492 -17.535468 M10.906992 -17.535468 L10.781992 -17.535468 M10.719492 -17.535468 L10.594492 -17.535468 M10.531992 -17.535468 L10.406992 -17.535468 M10.344492 -17.535468 L10.219492 -17.535468 M10.156992 -17.535468 L10.031992 -17.535468 M9.9694919 -17.535468 L9.8444919 -17.535468 M9.7819919 -17.535468 L9.6569919 -17.535468 M9.5944919 -17.535468 L9.4694919 -17.535468 M9.4069919 -17.535468 L9.2819919 -17.535468 M9.2194919 -17.535468 L9.0944919 -17.535468 M9.0319919 -17.535468 L8.9069919 -17.535468 M8.8444919 -17.535468 L8.7194919 -17.535468 M8.6569919 -17.535468 L8.5319919 -17.535468 M8.4694919 -17.535468 L8.3444919 -17.535468 M8.2819919 -17.535468 L8.1569919 -17.535468 M8.0944919 -17.535468 L7.9694919 -17.535468 M7.9069919 -17.535468 L7.7819919 -17.535468 M7.7194919 -17.535468 L7.5944919 -17.535468 M7.5319919 -17.535468 L7.4069919 -17.535468 M7.3444919 -17.535468 L7.2194919 -17.535468 M7.1569919 -17.535468 L7.0319919 -17.535468 M6.9694919 -17.535468 L6.8444919 -17.535468 M6.7819919 -17.535468 L6.6569919 -17.535468 M6.5944919 -17.535468 L6.4694919 -17.535468 M6.4069919 -17.535468 L6.2819919 -17.535468 M6.2194919 -17.535468 L6.0944919 -17.535468 M6.0319919 -17.535468 L5.9863978 -17.535468 L5.9863978 -17.410468 M5.9863978 -17.347968 L5.9863978 -17.222968 M5.9863978 -17.160468 L5.9863978 -17.035468 M5.9863978 -16.972968 L5.9863978 -16.868161 L6.1113978 -16.868161 M6.1738978 -16.868161 L6.2988978 -16.868161 M6.3613978 -16.868161 L6.4863978 -16.868161 M6.5488978 -16.868161 L6.6738978 -16.868161 M6.7363978 -16.868161 L6.8613978 -16.868161 M6.9238978 -16.868161 L7.0488978 -16.868161 M7.1113978 -16.868161 L7.2363978 -16.868161 M7.2988978 -16.868161 L7.4238978 -16.868161 M7.4863978 -16.868161 L7.6113978 -16.868161 M7.6738978 -16.868161 L7.7988978 -16.868161 M7.8613978 -16.868161 L7.9863978 -16.868161 M8.0488978 -16.868161 L8.1738978 -16.868161 M8.2363978 -16.868161 L8.3613978 -16.868161 M8.4238978 -16.868161 L8.5488978 -16.868161 M8.6113978 -16.868161 L8.7363978 -16.868161 M8.7988978 -16.868161 L8.9238978 -16.868161 M8.9863978 -16.868161 L9.1113978 -16.868161 M9.1738978 -16.868161 L9.2988978 -16.868161 M9.3613978 -16.868161 L9.4863978 -16.868161 M9.5488978 -16.868161 L9.6738978 -16.868161 M9.7363978 -16.868161 L9.8613978 -16.868161 M9.9238978 -16.868161 L10.048898 -16.868161 M10.111398 -16.868161 L10.236398 -16.868161 M10.298898 -16.868161 L10.423898 -16.868161 M10.486398 -16.868161 L10.611398 -16.868161 M10.673898 -16.868161 L10.798898 -16.868161 M10.861398 -16.868161 L10.986398 -16.868161 M11.048898 -16.868161 L11.173898 -16.868161 M11.236398 -16.868161 L11.361398 -16.868161 M11.423898 -16.868161 L11.469492 -16.868161 L11.469492 -16.993161 M11.469492 -17.055661 L11.469492 -17.180661 M11.469492 -17.243161 L11.469492 -17.368161 M11.469492 -17.430661 L11.469492 -17.535468 " style="&st2;"/>
</g>
<g id="Lwpline_3">
<path d="M9.2 -17.535816 L9.199949 -17.4 " style="&st2;"/>
</g>
<g id="Lwpline_4">
<path d="M9.2 -17.060831 L9.2 -16.868161 " style="&st2;"/>
</g>
<g id="TEXT_6" style="&st4;">
<text x="9.3018943" y="-17.030068">10A</text>
</g>
<g id="TEXT_9" style="&st7;">
<text x="9.1893962" y="-17.587609">ALL TIMES</text>
</g>
<g id="TEXT_17" style="&st7;">
<text x="9.1853028" y="-17.733309">HOT AT</text>
</g>
<g id="Lwpline_5">
<path d="M0.1 -3.1756181 L3.1 -3.1756181 L3.1 -15.114828 L0.1 -15.114828 L0.1 -3.1756181 " style="&st2;"/>
</g>
<g id="Lwpline_6">
<path d="M1.9607368 -14.6 L3.1 -14.6 " style="&st2;"/>
</g>
<g id="Lwpline_7">
<path d="M1.9687368 -13 L3.1 -13 " style="&st2;"/>
</g>
<g id="Lwpline_8">
<path d="M1.9777174 -13.8 L3.1 -13.8 " style="&st2;"/>
</g>
<g id="INSERT_1">
<g transform="matrix(1 0 0 1 0.84296259 -13.8)">
<use style="&st12;" xlink:href="#SP2_BLK_1_20"/>
</g>
</g>
<g id="Lwpline_10">
<path d="M0.84296259 -13.8 L0.84296259 -14.6 L1.6312632 -14.6 " style="&st2;"/>
</g>
<g id="Lwpline_11">
<path d="M1.9607368 -12.2 L3.1 -12.2 " style="&st2;"/>
</g>
<g id="Lwpline_12">
<path d="M1.6312632 -12.2 L0.84296259 -12.2 L0.84296259 -13.8 L1.6231301 -13.8 " style="&st2;"/>
</g>
<g id="Lwpline_13">
<path d="M1.6312632 -13 L0.84296259 -13 " style="&st2;"/>
</g>
<g id="INSERT_2">
<g transform="matrix(1 0 0 1 0.84296259 -13)">
<use style="&st12;" xlink:href="#SP2_BLK_1_20"/>
</g>
</g>
<g id="Lwpline_14">
<path d="M3.6 -11.2 L13.4 -11.2 " style="&st13;"/>
</g>
<g id="Lwpline_15">
<path d="M3.6 -10.8 L10.2 -10.8 L10.2 -9.6 L13.4 -9.6 " style="&st14;"/>
</g>
<g id="Lwpline_16">
<path d="M13.275 -13 L14.2 -13 L14.2 -12.4 L13.275 -12.4 L13.275 -13 " style="&st2;"/>
</g>
<g id="Lwpline_17">
<path d="M3.6 -4.4 L9.6 -4.4 L9.6 -5 L13.4 -5 " style="&st16;"/>
</g>
<g id="Lwpline_18">
<path d="M5.908 -14.8 L5.783 -14.8 M5.7205 -14.8 L5.5955 -14.8 M5.533 -14.8 L5.408 -14.8 M5.3455 -14.8 L5.2205 -14.8 M5.158 -14.8 L5.033 -14.8 M4.9705 -14.8 L4.8919018 -14.8 " style="&st16;"/>
</g>
<g id="Lwpline_19">
<path d="M3.6 -5 L5.4 -5 " style="&st14;"/>
</g>
<g id="Lwpline_20">
<path d="M8.1369485 -0.40005056 L8 -0.40005056 L8 -0.73976737 " style="&st2;"/>
</g>
<g id="Lwpline_21">
<path d="M8.4761179 -0.40005056 L8.6 -0.40005056 L8.6 -0.73976737 " style="&st2;"/>
</g>
<g id="Lwpline_22">
<path d="M8.7208473 -0.10977177 L8.7208473 -0.73976737 L7.8957986 -0.73976737 L7.8957986 -0.10977177 L8.7208473 -0.10977177 " style="&st2;"/>
</g>
<g id="Lwpline_23">
<path d="M8 -0.73976737 L8 -1.1328 " style="&st17;"/>
</g>
<g id="Lwpline_24">
<path d="M8.6 -0.73976737 L8.6 -1.1328 " style="&st18;"/>
</g>
<g id="Lwpline_25">
<path d="M11.120847 -0.10977177 L11.120847 -0.73976737 L10.295799 -0.73976737 L10.295799 -0.10977177 L11.120847 -0.10977177 " style="&st2;"/>
</g>
<g id="Lwpline_26">
<path d="M10.876118 -0.40005056 L11 -0.40005056 L11 -0.73976737 " style="&st2;"/>
</g>
<g id="Lwpline_27">
<path d="M10.536949 -0.40005056 L10.4 -0.40005056 L10.4 -0.73976737 " style="&st2;"/>
</g>
<g id="Lwpline_28">
<path d="M10.4 -0.73976737 L10.4 -1.1328 " style="&st18;"/>
</g>
<g id="Lwpline_29">
<path d="M11 -0.73976737 L11 -1.1328 " style="&st17;"/>
</g>
<g id="Lwpline_30">
<path d="M10.4 -1.2 L10.4 -2 L8.6 -2 L8.6 -1.2 " style="&st18;"/>
</g>
<g id="Lwpline_31">
<path d="M11 -1.2 L11 -2 L11.908 -2 " style="&st16;"/>
</g>
<g id="Lwpline_32">
<path d="M8 -1.2 L8 -11.6 L3.6 -11.6 " style="&st17;"/>
</g>
<g id="Lwpline_33">
<path d="M14.090228 -8.5208473 L13.965228 -8.5208473 M13.902728 -8.5208473 L13.777728 -8.5208473 M13.715228 -8.5208473 L13.590228 -8.5208473 M13.527728 -8.5208473 L13.402728 -8.5208473 M13.340228 -8.5208473 L13.215228 -8.5208473 M13.152728 -8.5208473 L13.027728 -8.5208473 M12.965228 -8.5208473 L12.840228 -8.5208473 M12.777728 -8.5208473 L12.652728 -8.5208473 M12.590228 -8.5208473 L12.465228 -8.5208473 M12.402728 -8.5208473 L12.277728 -8.5208473 M12.215228 -8.5208473 L12.090228 -8.5208473 M12.060233 -8.5208473 L12.060233 -8.3958473 M12.060233 -8.3333473 L12.060233 -8.2083473 M12.060233 -8.1458473 L12.060233 -8.0208473 M12.060233 -7.9583473 L12.060233 -7.8333473 M12.060233 -7.7708473 L12.060233 -7.6458473 M12.060233 -7.5833473 L12.060233 -7.4583473 M12.060233 -7.3958473 L12.060233 -7.2708473 M12.060233 -7.2083473 L12.060233 -7.0833473 M12.060233 -7.0208473 L12.060233 -6.8958473 M12.060233 -6.8957986 L12.185233 -6.8957986 M12.247733 -6.8957986 L12.372733 -6.8957986 M12.435233 -6.8957986 L12.560233 -6.8957986 M12.622733 -6.8957986 L12.747733 -6.8957986 M12.810233 -6.8957986 L12.935233 -6.8957986 M12.997733 -6.8957986 L13.122733 -6.8957986 M13.185233 -6.8957986 L13.310233 -6.8957986 M13.372733 -6.8957986 L13.497733 -6.8957986 M13.560233 -6.8957986 L13.685233 -6.8957986 M13.747733 -6.8957986 L13.872733 -6.8957986 M13.935233 -6.8957986 L14.060233 -6.8957986 M14.090228 -6.8957986 L14.090228 -7.0207986 M14.090228 -7.0832986 L14.090228 -7.2082986 M14.090228 -7.2707986 L14.090228 -7.3957986 M14.090228 -7.4582986 L14.090228 -7.5832986 M14.090228 -7.6457986 L14.090228 -7.7707986 M14.090228 -7.8332986 L14.090228 -7.9582986 M14.090228 -8.0207986 L14.090228 -8.1457986 M14.090228 -8.2082986 L14.090228 -8.3332986 M14.090228 -8.3957986 L14.090228 -8.5207986 M14.090228 -8.5208473 " style="&st2;"/>
</g>
<g id="Lwpline_34">
<path d="M12.060233 -7.4 L13 -7.3998751 L13 -7.5386339 " style="&st2;"/>
</g>
<g id="Lwpline_35">
<path d="M12.999949 -7.8761179 L12.999949 -8 L12.060233 -8 " style="&st2;"/>
</g>
<g id="Lwpline_36">
<path d="M13.999949 -7.8761179 L13.999949 -8.4 L12.060233 -8.4 " style="&st2;"/>
</g>
<g id="Lwpline_37">
<path d="M12.060233 -7 L14 -6.9998751 L14 -7.5386339 " style="&st2;"/>
</g>
<g id="Lwpline_38">
<path d="M12 -7.4 L9.2 -7.4 L9.2 -10.6 L3.6 -10.6 " style="&st14;"/>
</g>
<g id="Lwpline_39">
<path d="M12 -7 L8.6 -7 L8.6 -10.4 L3.6 -10.4 " style="&st14;"/>
</g>
<g id="Lwpline_40">
<path d="M9.8 -8.492 L9.8 -13 L3.6 -13 " style="&st14;"/>
</g>
<g id="Lwpline_41">
<path d="M12 -8.4 L9.892 -8.4 " style="&st14;"/>
</g>
<g id="Lwpline_42">
<path d="M12 -8 L9.8 -8 L9.8 -8.308 " style="&st14;"/>
</g>
<g id="Lwpline_43">
<path d="M13.475 -6 L14.2 -6 L14.2 -4.4 L13.475 -4.4 L13.475 -6 " style="&st2;"/>
</g>
<g id="Lwpline_44">
<path d="M6.4 -17.535816 L6.399949 -17.4 " style="&st2;"/>
</g>
<g id="Lwpline_45">
<path d="M6.4 -17.060831 L6.4 -16.868161 " style="&st2;"/>
</g>
<g id="TEXT_165" style="&st4;">
<text x="6.5018943" y="-17.030068">5A</text>
</g>
<g id="TEXT_168" style="&st7;">
<text x="6.3759945" y="-17.587609">RUN AND START</text>
</g>
<g id="TEXT_169" style="&st7;">
<text x="6.3831674" y="-17.733309">HOT IN ACCY,</text>
</g>
<g id="Lwpline_46">
<path d="M7.8 -17.535816 L7.799949 -17.4 " style="&st2;"/>
</g>
<g id="Lwpline_47">
<path d="M7.8 -17.060831 L7.8 -16.868161 " style="&st2;"/>
</g>
<g id="TEXT_175" style="&st4;">
<text x="7.9018943" y="-17.030068">5A</text>
</g>
<g id="TEXT_178" style="&st7;">
<text x="7.7883351" y="-17.587609">START</text>
</g>
<g id="TEXT_179" style="&st7;">
<text x="7.7897888" y="-17.733309">HOT IN</text>
</g>
<g id="Lwpline_48">
<path d="M3.6 -3.60425 L9.19575 -3.60425 L9.19575 -5.40425 L13.4 -5.40425 " style="&st20;"/>
</g>
<g id="Lwpline_49">
<path d="M3.6 -3.59175 L9.20825 -3.59175 L9.20825 -5.39175 L13.4 -5.39175 " style="&st21;"/>
</g>
<g id="Lwpline_50">
<path d="M13.4 -3.20425 L9.60425 -3.20425 L9.60425 -3.80425 L3.6 -3.80425 " style="&st22;"/>
</g>
<g id="Lwpline_51">
<path d="M13.4 -3.19175 L9.59175 -3.19175 L9.59175 -3.79175 L3.6 -3.79175 " style="&st23;"/>
</g>
<g id="Lwpline_52">
<path d="M3.6 -4.80425 L8.79575 -4.80425 L8.79575 -5.60425 L13.4 -5.60425 " style="&st20;"/>
</g>
<g id="Lwpline_53">
<path d="M3.6 -4.79175 L8.80825 -4.79175 L8.80825 -5.59175 L13.4 -5.59175 " style="&st23;"/>
</g>
<g id="Lwpline_54">
<path d="M3.6 -5.009375 L5.4 -5.009375 " style="&st24;"/>
</g>
<g id="Lwpline_55">
<path d="M3.6 -4.990625 L5.4 -4.990625 " style="&st24;"/>
</g>
<g id="Lwpline_56">
<path d="M3.6 -5.20425 L5.4 -5.20425 " style="&st25;"/>
</g>
<g id="Lwpline_57">
<path d="M3.6 -5.19175 L5.4 -5.19175 " style="&st26;"/>
</g>
<g id="Lwpline_58">
<path d="M3.6 -5.40425 L5.4 -5.40425 " style="&st20;"/>
</g>
<g id="Lwpline_59">
<path d="M3.6 -5.39175 L5.4 -5.39175 " style="&st27;"/>
</g>
<g id="Lwpline_60">
<path d="M3.6 -5.60425 L8.40425 -5.60425 L8.40425 -5.20425 L13.4 -5.20425 " style="&st25;"/>
</g>
<g id="Lwpline_61">
<path d="M3.6 -5.59175 L8.39175 -5.59175 L8.39175 -5.19175 L13.4 -5.19175 " style="&st27;"/>
</g>
<g id="Lwpline_62">
<path d="M3.6 -5.80425 L13.4 -5.80425 " style="&st28;"/>
</g>
<g id="Lwpline_63">
<path d="M3.6 -5.79175 L13.4 -5.79175 " style="&st21;"/>
</g>
<g id="Lwpline_64">
<path d="M3.6 -9.80425 L5.4 -9.80425 " style="&st20;"/>
</g>
<g id="Lwpline_65">
<path d="M3.6 -9.79175 L5.4 -9.79175 " style="&st21;"/>
</g>
<g id="Lwpline_66">
<path d="M3.6 -10.20425 L10.59575 -10.20425 L10.59575 -12.60425 L13.2 -12.60425 " style="&st22;"/>
</g>
<g id="Lwpline_67">
<path d="M3.6 -10.19175 L10.60825 -10.19175 L10.60825 -12.59175 L13.2 -12.59175 " style="&st27;"/>
</g>
<g id="Lwpline_68">
<path d="M12 -7.009375 L8.609375 -7.009375 L8.609375 -10.409375 L3.6 -10.409375 " style="&st24;"/>
</g>
<g id="Lwpline_69">
<path d="M12 -6.990625 L8.590625 -6.990625 L8.590625 -10.390625 L3.6 -10.390625 " style="&st24;"/>
</g>
<g id="Lwpline_70">
<path d="M12 -7.409375 L9.209375 -7.409375 L9.209375 -10.609375 L3.6 -10.609375 " style="&st24;"/>
</g>
<g id="Lwpline_71">
<path d="M12 -7.390625 L9.190625 -7.390625 L9.190625 -10.590625 L3.6 -10.590625 " style="&st24;"/>
</g>
<g id="Lwpline_72">
<path d="M3.6 -10.809375 L10.209375 -10.809375 L10.209375 -9.609375 L13.4 -9.609375 " style="&st24;"/>
</g>
<g id="Lwpline_73">
<path d="M3.6 -10.790625 L10.190625 -10.790625 L10.190625 -9.590625 L13.4 -9.590625 " style="&st24;"/>
</g>
<g id="Lwpline_74">
<path d="M3.6 -12.00425 L9.19575 -12.00425 L9.19575 -16.8 " style="&st29;"/>
</g>
<g id="Lwpline_75">
<path d="M3.6 -11.99175 L9.20825 -11.99175 L9.20825 -16.8 " style="&st30;"/>
</g>
<g id="Lwpline_76">
<path d="M3.6 -12.20425 L5.4 -12.20425 " style="&st25;"/>
</g>
<g id="Lwpline_77">
<path d="M3.6 -12.19175 L5.4 -12.19175 " style="&st27;"/>
</g>
<g id="Lwpline_78">
<path d="M3.6 -12.40425 L5.4 -12.40425 " style="&st20;"/>
</g>
<g id="Lwpline_79">
<path d="M3.6 -12.39175 L5.4 -12.39175 " style="&st23;"/>
</g>
<g id="Lwpline_80">
<path d="M3.6 -12.80425 L13.2 -12.80425 " style="&st22;"/>
</g>
<g id="Lwpline_81">
<path d="M3.6 -12.79175 L13.2 -12.79175 " style="&st23;"/>
</g>
<g id="Lwpline_82">
<path d="M9.790625 -8.492 L9.790625 -12.990625 L3.6 -12.990625 " style="&st24;"/>
</g>
<g id="Lwpline_83">
<path d="M9.809375 -8.492 L9.809375 -13.009375 L3.6 -13.009375 " style="&st24;"/>
</g>
<g id="Lwpline_84">
<path d="M3.6 -13.60425 L5.4 -13.60425 " style="&st22;"/>
</g>
<g id="Lwpline_85">
<path d="M3.6 -13.59175 L5.4 -13.59175 " style="&st30;"/>
</g>
<g id="Lwpline_86">
<path d="M3.6 -13.80425 L5.4 -13.80425 " style="&st31;"/>
</g>
<g id="Lwpline_87">
<path d="M3.6 -13.79175 L5.4 -13.79175 " style="&st30;"/>
</g>
<g id="Lwpline_88">
<path d="M3.6 -14.60425 L6.39575 -14.60425 L6.39575 -16.8 " style="&st32;"/>
</g>
<g id="Lwpline_89">
<path d="M3.6 -14.59175 L6.40825 -14.59175 L6.40825 -16.8 " style="&st21;"/>
</g>
<g id="Lwpline_90">
<path d="M4.7080982 -14.80425 L3.6 -14.80425 " style="&st28;"/>
</g>
<g id="Lwpline_91">
<path d="M4.7080982 -14.79175 L3.6 -14.79175 " style="&st21;"/>
</g>
<g id="Lwpline_92">
<path d="M12 -8.009375 L9.809375 -8.009375 L9.809375 -8.308 " style="&st24;"/>
</g>
<g id="Lwpline_93">
<path d="M12 -7.990625 L9.790625 -7.990625 L9.790625 -8.308 " style="&st24;"/>
</g>
<g id="Lwpline_94">
<path d="M12 -8.409375 L9.892 -8.409375 " style="&st24;"/>
</g>
<g id="Lwpline_95">
<path d="M12 -8.390625 L9.892 -8.390625 " style="&st24;"/>
</g>
<g id="Lwpline_96">
<path d="M3.6 -4.6 L13.4 -4.6 " style="&st13;"/>
</g>
<g id="Lwpline_97">
<path d="M5.5012598 -4.899587 L5.5490295 -4.9505858 L5.5490295 -5.0521751 L5.6 -5.1 L5.5490295 -5.1478249 L5.5490295 -5.2494142 L5.5012598 -5.300413 " style="&st2;"/>
</g>
<g id="Lwpline_98">
<path d="M7.79575 -16.8 L7.79575 -14.40425 L3.6 -14.40425 " style="&st31;"/>
</g>
<g id="Lwpline_99">
<path d="M7.80825 -16.8 L7.80825 -14.39175 L3.6 -14.39175 " style="&st34;"/>
</g>
<g id="TEXT_209" style="&st7;">
<text x="10.789396" y="-17.587609">ALL TIMES</text>
</g>
<g id="TEXT_210" style="&st4;">
<text x="10.901894" y="-17.030068">5A</text>
</g>
<g id="Lwpline_100">
<path d="M10.8 -17.535816 L10.799949 -17.4 " style="&st2;"/>
</g>
<g id="Lwpline_101">
<path d="M10.8 -17.060831 L10.8 -16.868161 " style="&st2;"/>
</g>
<g id="TEXT_218" style="&st7;">
<text x="10.785303" y="-17.733309">HOT AT</text>
</g>
<g id="Lwpline_102">
<path d="M13.275 -14.6 L14.2 -14.6 L14.2 -13.8 L13.275 -13.8 L13.275 -14.6 " style="&st2;"/>
</g>
<g id="Lwpline_105">
<path d="M10.76 -14.279712 L10.76 -14.12105 " style="&st2;"/>
</g>
<g id="Lwpline_107">
<path d="M11.708 -14.2 L11.583 -14.2 M11.5205 -14.2 L11.3955 -14.2 M11.333 -14.2 L11.208 -14.2 M11.1455 -14.2 L11.0205 -14.2 M10.958 -14.2 L10.892 -14.2 " style="&st16;"/>
</g>
<g id="Lwpline_108">
<path d="M11.779 -14.2 A0.021 0.021 0 0 0 11.821 -14.2 A0.021 0.021 0 0 0 11.779 -14.2 " style="&st36;"/>
</g>
<g id="Lwpline_109">
<path d="M3.6 -14.00425 L13.2 -14.00425 " style="&st25;"/>
</g>
<g id="Lwpline_110">
<path d="M3.6 -13.99175 L13.2 -13.99175 " style="&st27;"/>
</g>
<g id="Lwpline_111">
<path d="M13.2 -14.20425 L11.892 -14.20425 " style="&st28;"/>
</g>
<g id="Lwpline_112">
<path d="M13.2 -14.19175 L11.892 -14.19175 " style="&st21;"/>
</g>
<g id="Lwpline_113">
<path d="M10.79575 -16.8 L10.79575 -14.39575 L13.2 -14.39575 " style="&st29;"/>
</g>
<g id="Lwpline_114">
<path d="M10.80825 -16.8 L10.80825 -14.40825 L13.2 -14.40825 " style="&st37;"/>
</g>
<g id="TEXT_234" style="&st4;">
<text x="0.09" y="-0.09">237789</text>
</g>
<g id="Lwpline_131">
<path d="M12.04 -1.9202882 L12.04 -2.0789501 " style="&st2;"/>
</g>
<g id="Lwpline_148">
<path d="M6.04 -14.720288 L6.04 -14.87895 " style="&st2;"/>
</g>
</g>
<g id="Layer_1_COMPNAME" style="&Layer_1_COMPNAME;">
<g id="TEXT_1" style="&st4;">
<text x="11.517604" y="-17.447835">FUSE</text>
</g>
<g id="TEXT_2" style="&st4;">
<text x="11.517604" y="-17.302121">HOLDER 2</text>
</g>
<g id="TEXT_4" style="&st4;">
<text x="9.301894" y="-17.321468">FUSE</text>
</g>
<g id="TEXT_7" style="&st4;">
<text x="9.301894" y="-17.321468">FUSE</text>
</g>
<g id="TEXT_8" style="&st4;">
<text x="9.3018941" y="-17.175768">F21</text>
</g>
<g id="TEXT_112" style="&st6;">
<text x="14.13095" y="-2.7002692">MODULE</text>
</g>
<g id="TEXT_113" style="&st6;">
<text x="14.13095" y="-2.8459832">GENERAL</text>
</g>
<g id="TEXT_134" style="&st6;">
<text x="14.099234" y="-6.7400485">ELECTRIC FUEL PUMP</text>
</g>
<g id="TEXT_164" style="&st4;">
<text x="6.501894" y="-17.321468">FUSE</text>
</g>
<g id="TEXT_166" style="&st4;">
<text x="6.501894" y="-17.321468">FUSE</text>
</g>
<g id="TEXT_167" style="&st4;">
<text x="6.5018941" y="-17.175768">F9</text>
</g>
<g id="TEXT_174" style="&st4;">
<text x="7.901894" y="-17.321468">FUSE</text>
</g>
<g id="TEXT_176" style="&st4;">
<text x="7.901894" y="-17.321468">FUSE</text>
</g>
<g id="TEXT_177" style="&st4;">
<text x="7.9018941" y="-17.175768">F5</text>
</g>
<g id="TEXT_206" style="&st6;">
<text x="14.13095" y="-2.5545592">CONTROL</text>
</g>
<g id="TEXT_207" style="&st6;">
<text x="14.13095" y="-2.4088492">UNIT</text>
</g>
<g id="TEXT_211" style="&st4;">
<text x="10.901894" y="-17.321468">FUSE</text>
</g>
<g id="TEXT_212" style="&st4;">
<text x="10.901894" y="-17.321468">FUSE</text>
</g>
<g id="TEXT_217" style="&st4;">
<text x="10.901894" y="-17.175768">F3</text>
</g>
</g>
<g id="Layer_1_WCOLOR" style="&Layer_1_WCOLOR;">
<g id="TEXT_3" style="&st6;">
<text x="9.138466" y="-16.377108">RED/</text>
</g>
<g id="TEXT_5" style="&st6;">
<text x="9.138466" y="-16.231394">YEL</text>
</g>
<g id="TEXT_45" style="&st4;">
<text x="4.225" y="-5.65">GRY/RED</text>
</g>
<g id="TEXT_51" style="&st4;">
<text x="4.225" y="-5.45">YEL/RED</text>
</g>
<g id="TEXT_52" style="&st4;">
<text x="4.225" y="-4.45">BRN</text>
</g>
<g id="TEXT_62" style="&st4;">
<text x="4.225" y="-5.85">BRN/BLK</text>
</g>
<g id="TEXT_70" style="&st4;">
<text x="4.025" y="-11.25">BLU</text>
</g>
<g id="TEXT_71" style="&st4;">
<text x="4.025" y="-10.85">BLU/BRN/YEL</text>
</g>
<g id="TEXT_72" style="&st4;">
<text x="4.025" y="-11.65">YEL</text>
</g>
<g id="TEXT_73" style="&st4;">
<text x="4.225" y="-5.05">WHT/RED/YEL</text>
</g>
<g id="TEXT_74" style="&st4;">
<text x="4.225" y="-3.85">BLU/BRN</text>
</g>
<g id="TEXT_75" style="&st4;">
<text x="4.025" y="-12.85">BLU/BRN</text>
</g>
<g id="TEXT_76" style="&st4;">
<text x="4.025" y="-10.25">BLU/RED</text>
</g>
<g id="TEXT_77" style="&st4;">
<text x="4.025" y="-13.85">BLK/YEL</text>
</g>
<g id="TEXT_78" style="&st4;">
<text x="4.025" y="-13.05">BRN/BLK/WHT</text>
</g>
<g id="TEXT_79" style="&st4;">
<text x="4.025" y="-10.65">BLK/RED/YEL</text>
</g>
<g id="TEXT_80" style="&st4;">
<text x="4.025" y="-10.45">BLK/RED/WHT</text>
</g>
<g id="TEXT_81" style="&st4;">
<text x="4.025" y="-12.05">RED/YEL</text>
</g>
<g id="TEXT_82" style="&st4;">
<text x="4.225" y="-3.65">YEL/BLK</text>
</g>
<g id="TEXT_83" style="&st4;">
<text x="4.225" y="-4.85">YEL/BRN</text>
</g>
<g id="TEXT_84" style="&st4;">
<text x="4.225" y="-4.65">BLU</text>
</g>
<g id="TEXT_86" style="&st6;">
<text x="13.093797" y="-11.25">BLU</text>
</g>
<g id="TEXT_92" style="&st6;">
<text x="13.093797" y="-9.65">BLU/BRN/YEL</text>
</g>
<g id="TEXT_94" style="&st6;">
<text x="12.725" y="-12.85">BLU/BRN</text>
</g>
<g id="TEXT_96" style="&st6;">
<text x="12.725" y="-12.65">BLU/RED</text>
</g>
<g id="TEXT_106" style="&st4;">
<text x="4.025" y="-12.25">GRY/RED</text>
</g>
<g id="TEXT_107" style="&st4;">
<text x="4.025" y="-14.85">BRN/BLK</text>
</g>
<g id="TEXT_108" style="&st4;">
<text x="4.925" y="-14.85">BRN/BLK</text>
</g>
<g id="TEXT_111" style="&st6;">
<text x="12.925" y="-3.25">BLU/BRN</text>
</g>
<g id="TEXT_118" style="&st6;">
<text x="7.9724096" y="-0.86268492">YEL</text>
</g>
<g id="TEXT_119" style="&st6;">
<text x="8.5656841" y="-0.87276468">BLK</text>
</g>
<g id="TEXT_123" style="&st6;">
<text x="10.367164" y="-0.86268492">BLK</text>
</g>
<g id="TEXT_124" style="&st6;">
<text x="10.960439" y="-0.87276468">YEL</text>
</g>
<g id="TEXT_129" style="&st6;">
<text x="8.5734573" y="-1.4727647">BLK</text>
</g>
<g id="TEXT_130" style="&st6;">
<text x="7.9801829" y="-1.4626849">YEL</text>
</g>
<g id="TEXT_131" style="&st6;">
<text x="10.373457" y="-1.4727647">BLK</text>
</g>
<g id="TEXT_133" style="&st6;">
<text x="10.973457" y="-1.4727647">BRN</text>
</g>
<g id="TEXT_135" style="&st6;">
<text x="11.559286" y="-7.05">BLK/RED/WHT</text>
</g>
<g id="TEXT_136" style="&st6;">
<text x="11.559286" y="-7.45">BLK/RED/YEL</text>
</g>
<g id="TEXT_139" style="&st6;">
<text x="11.559286" y="-8.05">BRN/BLK/WHT</text>
</g>
<g id="TEXT_141" style="&st6;">
<text x="11.559286" y="-8.45">BRN/BLK/WHT</text>
</g>
<g id="TEXT_146" style="&st6;">
<text x="12.925" y="-5.45">YEL/BLK</text>
</g>
<g id="TEXT_147" style="&st6;">
<text x="12.925" y="-5.05">BRN</text>
</g>
<g id="TEXT_148" style="&st6;">
<text x="12.925" y="-4.65">BLU</text>
</g>
<g id="TEXT_149" style="&st6;">
<text x="12.925" y="-5.65">YEL/BRN</text>
</g>
<g id="TEXT_150" style="&st6;">
<text x="12.925" y="-5.25">GRY/RED</text>
</g>
<g id="TEXT_151" style="&st6;">
<text x="12.925" y="-5.85">BRN/BLK</text>
</g>
<g id="TEXT_159" style="&st4;">
<text x="4.025" y="-14.65">VIO/BLK</text>
</g>
<g id="TEXT_161" style="&st6;">
<text x="6.338466" y="-16.377108">VIO/</text>
</g>
<g id="TEXT_162" style="&st6;">
<text x="6.338466" y="-16.231394">BLK</text>
</g>
<g id="TEXT_171" style="&st6;">
<text x="7.738466" y="-16.377108">BLK/</text>
</g>
<g id="TEXT_172" style="&st6;">
<text x="7.738466" y="-16.231394">VIO</text>
</g>
<g id="TEXT_180" style="&st4;">
<text x="4.025" y="-14.45">BLK/VIO</text>
</g>
<g id="TEXT_182" style="&st4;">
<text x="4.025" y="-13.65">BLU/YEL</text>
</g>
<g id="TEXT_185" style="&st4;">
<text x="4.025" y="-9.85">YEL/BLK</text>
</g>
<g id="TEXT_188" style="&st4;">
<text x="4.025" y="-12.45">YEL/BRN</text>
</g>
<g id="TEXT_195" style="&st4;">
<text x="4.225" y="-5.25">GRY/WHT</text>
</g>
<g id="TEXT_208" style="&st4;">
<text x="4.025" y="-14.05">GRY/RED</text>
</g>
<g id="TEXT_214" style="&st6;">
<text x="10.738466" y="-16.377108">RED/</text>
</g>
<g id="TEXT_215" style="&st6;">
<text x="10.738466" y="-16.231394">GRN</text>
</g>
<g id="TEXT_221" style="&st6;">
<text x="12.725" y="-14.05">GRY/RED</text>
</g>
<g id="TEXT_222" style="&st6;">
<text x="12.725" y="-14.25">BRN/BLK</text>
</g>
<g id="TEXT_225" style="&st6;">
<text x="12.725" y="-14.45">RED/GRN</text>
</g>
<g id="TEXT_233" style="&st6;">
<text x="11.586762" y="-14.25">BRN/BLK</text>
</g>
</g>
<g id="Layer_1_CONN" style="&Layer_1_CONN;">
<g id="TEXT_10" style="&st4;">
<text x="3.625" y="-13.85">6</text>
</g>
<g id="TEXT_11" style="&st4;">
<text x="3.625" y="-13.65">7</text>
</g>
<g id="TEXT_12" style="&st4;">
<text x="3.625" y="-14.05">5</text>
</g>
<g id="TEXT_13" style="&st4;">
<text x="3.625" y="-14.85">1</text>
</g>
<g id="TEXT_14" style="&st4;">
<text x="3.625" y="-14.45">3</text>
</g>
<g id="TEXT_15" style="&st4;">
<text x="3.625" y="-14.25">4</text>
</g>
<g id="TEXT_16" style="&st4;">
<text x="3.625" y="-14.65">2</text>
</g>
<g id="TEXT_18" style="&st4;">
<text x="3.625" y="-10.45">23</text>
</g>
<g id="TEXT_19" style="&st4;">
<text x="3.625" y="-10.65">22</text>
</g>
<g id="TEXT_20" style="&st4;">
<text x="3.625" y="-11.45">18</text>
</g>
<g id="TEXT_21" style="&st4;">
<text x="3.625" y="-10.85">21</text>
</g>
<g id="TEXT_22" style="&st4;">
<text x="3.625" y="-11.05">20</text>
</g>
<g id="TEXT_23" style="&st4;">
<text x="3.625" y="-11.25">19</text>
</g>
<g id="TEXT_24" style="&st4;">
<text x="3.625" y="-11.85">16</text>
</g>
<g id="TEXT_25" style="&st4;">
<text x="3.625" y="-11.65">17</text>
</g>
<g id="TEXT_26" style="&st4;">
<text x="3.625" y="-12.05">15</text>
</g>
<g id="TEXT_27" style="&st4;">
<text x="3.625" y="-12.85">11</text>
</g>
<g id="TEXT_28" style="&st4;">
<text x="3.625" y="-12.25">14</text>
</g>
<g id="TEXT_29" style="&st4;">
<text x="3.625" y="-12.45">13</text>
</g>
<g id="TEXT_30" style="&st4;">
<text x="3.625" y="-12.65">12</text>
</g>
<g id="TEXT_31" style="&st4;">
<text x="3.625" y="-13.25">9</text>
</g>
<g id="TEXT_32" style="&st4;">
<text x="3.625" y="-13.05">10</text>
</g>
<g id="TEXT_33" style="&st4;">
<text x="3.625" y="-13.45">8</text>
</g>
<g id="TEXT_35" style="&st4;">
<text x="3.625" y="-9.6556809">X11177</text>
</g>
<g id="TEXT_36" style="&st4;">
<text x="3.625" y="-10.25">24</text>
</g>
<g id="TEXT_37" style="&st4;">
<text x="3.625" y="-4.65">7</text>
</g>
<g id="TEXT_38" style="&st4;">
<text x="3.625" y="-4.45">8</text>
</g>
<g id="TEXT_39" style="&st4;">
<text x="3.625" y="-4.85">6</text>
</g>
<g id="TEXT_40" style="&st4;">
<text x="3.625" y="-5.05">5</text>
</g>
<g id="TEXT_41" style="&st4;">
<text x="3.625" y="-5.25">4</text>
</g>
<g id="TEXT_42" style="&st4;">
<text x="3.625" y="-5.45">3</text>
</g>
<g id="TEXT_43" style="&st4;">
<text x="3.625" y="-5.65">2</text>
</g>
<g id="TEXT_44" style="&st4;">
<text x="3.625" y="-5.85">1</text>
</g>
<g id="TEXT_46" style="&st4;">
<text x="3.625" y="-3.4556809">X11175</text>
</g>
<g id="TEXT_47" style="&st4;">
<text x="3.625" y="-4.05">10</text>
</g>
<g id="TEXT_48" style="&st4;">
<text x="3.625" y="-3.65">12</text>
</g>
<g id="TEXT_49" style="&st4;">
<text x="3.625" y="-3.85">11</text>
</g>
<g id="TEXT_50" style="&st4;">
<text x="3.625" y="-4.25">9</text>
</g>
<g id="TEXT_59" style="&st6;">
<text x="3.0236575" y="-12.241089">19</text>
</g>
<g id="TEXT_60" style="&st6;">
<text x="3.0236575" y="-12.066404">X11177</text>
</g>
<g id="TEXT_64" style="&st6;">
<text x="3.0236575" y="-13.041089">21</text>
</g>
<g id="TEXT_65" style="&st6;">
<text x="3.0236575" y="-12.866404">X11177</text>
</g>
<g id="TEXT_66" style="&st6;">
<text x="3.0236575" y="-13.841089">17</text>
</g>
<g id="TEXT_67" style="&st6;">
<text x="3.0236575" y="-13.666404">X11177</text>
</g>
<g id="TEXT_68" style="&st6;">
<text x="3.0236575" y="-14.466404">X11177</text>
</g>
<g id="TEXT_69" style="&st6;">
<text x="3.0236575" y="-14.641089">6</text>
</g>
<g id="TEXT_85" style="&st6;">
<text x="13.351762" y="-11.25">1</text>
</g>
<g id="TEXT_93" style="&st6;">
<text x="13.351762" y="-9.65">1</text>
</g>
<g id="TEXT_95" style="&st6;">
<text x="13.125" y="-12.85">1</text>
</g>
<g id="TEXT_97" style="&st6;">
<text x="13.125" y="-12.65">2</text>
</g>
<g id="TEXT_103" style="&st4;">
<text x="9.27068" y="-16.709886">X10202</text>
</g>
<g id="TEXT_104" style="&st6;">
<text x="9.1221395" y="-16.709886">4</text>
</g>
<g id="TEXT_110" style="&st6;">
<text x="13.377163" y="-3.25">43</text>
</g>
<g id="TEXT_114" style="&st6;">
<text x="13.377163" y="-3.0415234">X255</text>
</g>
<g id="TEXT_125" style="&st6;">
<text x="10.332613" y="-1.2080744">2</text>
</g>
<g id="TEXT_126" style="&st6;">
<text x="10.932613" y="-1.2080744">1</text>
</g>
<g id="TEXT_127" style="&st6;">
<text x="7.9326129" y="-1.2080744">1</text>
</g>
<g id="TEXT_128" style="&st6;">
<text x="8.5326129" y="-1.2080744">2</text>
</g>
<g id="TEXT_137" style="&st6;">
<text x="11.951762" y="-7.45">6</text>
</g>
<g id="TEXT_138" style="&st6;">
<text x="11.951762" y="-7.05">4</text>
</g>
<g id="TEXT_140" style="&st6;">
<text x="11.951762" y="-8.05">3</text>
</g>
<g id="TEXT_142" style="&st6;">
<text x="11.951762" y="-8.45">1</text>
</g>
<g id="TEXT_152" style="&st6;">
<text x="13.325" y="-5.65">2</text>
</g>
<g id="TEXT_153" style="&st6;">
<text x="13.325" y="-5.05">5</text>
</g>
<g id="TEXT_154" style="&st6;">
<text x="13.325" y="-5.45">3</text>
</g>
<g id="TEXT_155" style="&st6;">
<text x="13.325" y="-4.65">7</text>
</g>
<g id="TEXT_156" style="&st6;">
<text x="13.325" y="-5.25">4</text>
</g>
<g id="TEXT_157" style="&st6;">
<text x="13.325" y="-5.85">1</text>
</g>
<g id="TEXT_158" style="&st6;">
<text x="13.325" y="-4.85">6</text>
</g>
<g id="TEXT_160" style="&st6;">
<text x="6.3221395" y="-16.709886">5</text>
</g>
<g id="TEXT_163" style="&st4;">
<text x="6.47068" y="-16.709886">X10206</text>
</g>
<g id="TEXT_170" style="&st6;">
<text x="7.7221395" y="-16.709886">9</text>
</g>
<g id="TEXT_173" style="&st4;">
<text x="7.87068" y="-16.709886">X10200</text>
</g>
<g id="TEXT_183" style="&st4;">
<text x="3.625" y="-9.85">26</text>
</g>
<g id="TEXT_184" style="&st4;">
<text x="3.625" y="-10.05">25</text>
</g>
<g id="TEXT_213" style="&st4;">
<text x="10.87068" y="-16.709886">X10200</text>
</g>
<g id="TEXT_216" style="&st6;">
<text x="10.72214" y="-16.709886">4</text>
</g>
<g id="TEXT_223" style="&st6;">
<text x="13.125" y="-14.25">4</text>
</g>
<g id="TEXT_224" style="&st6;">
<text x="13.125" y="-14.05">1</text>
</g>
<g id="TEXT_226" style="&st6;">
<text x="13.125" y="-14.45">3</text>
</g>
</g>
<g id="Layer_1_BESTVIEW" style="&Layer_1_BESTVIEW;">
<g id="TEXT_34" style="&st4;">
<text x="0.097609106" y="-3.008505">INSTRUMENT CLUSTER MODULE</text>
</g>
<g id="TEXT_53" style="&st7;">
<text x="1.7973693" y="-13.339708">WEAR IND</text>
</g>
<g id="TEXT_54" style="&st7;">
<text x="1.7902257" y="-12.539708">IND</text>
</g>
<g id="TEXT_55" style="&st7;">
<text x="1.7920008" y="-13.485408">BRAKE PAD</text>
</g>
<g id="TEXT_56" style="&st7;">
<text x="1.7879872" y="-12.685408">BRAKE</text>
</g>
<g id="TEXT_57" style="&st7;">
<text x="1.7753216" y="-14.285408">CHARGE IND</text>
</g>
<g id="TEXT_58" style="&st7;">
<text x="1.7807532" y="-14.139708">LAMP</text>
</g>
<g id="TEXT_61" style="&st7;">
<text x="1.7814609" y="-11.848485">OIL PRESSURE</text>
</g>
<g id="TEXT_63" style="&st7;">
<text x="1.7905958" y="-11.702785">IND</text>
</g>
<g id="TEXT_87" style="&st6;">
<text x="14.121319" y="-10.618098">PRESSURE</text>
</g>
<g id="TEXT_88" style="&st6;">
<text x="14.121319" y="-10.763812">OIL</text>
</g>
<g id="TEXT_89" style="&st6;">
<text x="14.121319" y="-10.472398">SWITCH</text>
</g>
<g id="TEXT_90" style="&st6;">
<text x="14.121319" y="-9.0180979">SWITCH</text>
</g>
<g id="TEXT_91" style="&st6;">
<text x="14.121319" y="-9.1638119">HAND BRAKE</text>
</g>
<g id="TEXT_98" style="&st6;">
<text x="14.190887" y="-11.969192">SENSOR</text>
</g>
<g id="TEXT_99" style="&st6;">
<text x="14.190887" y="-12.114892">TEMPERATURE</text>
</g>
<g id="TEXT_100" style="&st6;">
<text x="14.190887" y="-12.260606">OUTSIDE</text>
</g>
<g id="TEXT_115" style="&st4;">
<text x="8.7696861" y="-0.49972313">BRAKE PAD</text>
</g>
<g id="TEXT_116" style="&st4;">
<text x="8.7696861" y="-0.64972313">LEFT FRONT</text>
</g>
<g id="TEXT_117" style="&st4;">
<text x="8.7696861" y="-0.35402313">SENSOR</text>
</g>
<g id="TEXT_120" style="&st4;">
<text x="11.169686" y="-0.49972313">BRAKE PAD</text>
</g>
<g id="TEXT_121" style="&st4;">
<text x="11.169686" y="-0.64972313">RIGHT REAR</text>
</g>
<g id="TEXT_122" style="&st4;">
<text x="11.169686" y="-0.35402313">SENSOR</text>
</g>
<g id="TEXT_143" style="&st6;">
<text x="14.196183" y="-3.9545692">CLUSTER</text>
</g>
<g id="TEXT_144" style="&st6;">
<text x="14.196183" y="-4.2459832">AUXILIARY</text>
</g>
<g id="TEXT_145" style="&st6;">
<text x="14.196183" y="-4.1002692">INSTRUMENT</text>
</g>
<g id="TEXT_189" style="&st6;">
<text x="13.784429" y="-7.6453075">LEVEL</text>
</g>
<g id="TEXT_190" style="&st6;">
<text x="13.784429" y="-7.7910215">FUEL</text>
</g>
<g id="TEXT_191" style="&st6;">
<text x="13.784429" y="-7.4996075">SENSOR 1</text>
</g>
<g id="TEXT_192" style="&st6;">
<text x="12.784429" y="-7.4996075">SENSOR 2</text>
</g>
<g id="TEXT_193" style="&st6;">
<text x="12.784429" y="-7.6453075">LEVEL</text>
</g>
<g id="TEXT_194" style="&st6;">
<text x="12.784429" y="-7.7910215">FUEL</text>
</g>
<g id="TEXT_219" style="&st6;">
<text x="14.190887" y="-13.660606">DIGITAL</text>
</g>
<g id="TEXT_220" style="&st6;">
<text x="14.190887" y="-13.514892">CLOCK</text>
</g>
</g>
<g id="Layer_1_REF" style="&Layer_1_REF;">
<g id="TEXT_101" style="&st4;">
<text x="5.5569361" y="-5.356894">EXTERIOR LIGHTS SYSTEM</text>
</g>
<g id="TEXT_102" style="&st4;">
<text x="5.5569361" y="-13.756894">STARTING/CHARGING SYSTEM</text>
</g>
<g id="TEXT_105" style="&st4;">
<text x="5.5569361" y="-12.156894">INTERIOR LIGHTS SYSTEM</text>
</g>
<g id="TEXT_109" style="&st4;">
<text x="5.6491464" y="-5.0454993">COMPUTER DATA LINES SYSTEM</text>
</g>
<g id="TEXT_181" style="&st4;">
<text x="5.5569361" y="-13.556894">EXTERIOR LIGHTS SYSTEMS</text>
</g>
<g id="TEXT_186" style="&st4;">
<text x="5.5569361" y="-9.756894">COMPUTER DATA LINES SYSTEM</text>
</g>
<g id="TEXT_187" style="&st4;">
<text x="5.5569361" y="-12.356894">COMPUTER DATA LINES SYSTEM</text>
</g>
</g>
<g id="Layer_1_GROUND" style="&Layer_1_GROUND;">
<g id="TEXT_132" style="&st4;">
<text x="11.870063" y="-1.7554421">X494</text>
</g>
<g id="TEXT_203" style="&st6;">
<text x="6.2447619" y="-14.933239">X13230</text>
</g>
<g id="TEXT_227" style="&st6;">
<text x="10.628755" y="-14.159953">X13230</text>
</g>
</g>
<g id="Layer_1_COMPLOC" style="&Layer_1_COMPLOC;">
<g id="TEXT_196" style="&st6;">
<text x="6.2447619" y="-15.661789">(LEFT DOOR)</text>
</g>
<g id="TEXT_197" style="&st4;">
<text x="11.517604" y="-17.156411">(BEHIND LEFT</text>
</g>
<g id="TEXT_198" style="&st4;">
<text x="11.517604" y="-17.010701">FOOTWELL TRIM)</text>
</g>
<g id="TEXT_199" style="&st6;">
<text x="6.2447619" y="-15.516079">(COUPE)</text>
</g>
<g id="TEXT_200" style="&st6;">
<text x="6.2447619" y="-15.370369">(UNDER LEFT</text>
</g>
<g id="TEXT_201" style="&st6;">
<text x="6.2447619" y="-15.224659">REAR SEAT)</text>
</g>
<g id="TEXT_202" style="&st6;">
<text x="6.2447619" y="-15.078949">(CONVERTIBLE)</text>
</g>
<g id="TEXT_204" style="&st4;">
<text x="11.870063" y="-1.6097321">(RIGHT REAR SIDE</text>
</g>
<g id="TEXT_205" style="&st4;">
<text x="11.870063" y="-1.4640221">OF LUGGAGE COMPT)</text>
</g>
<g id="TEXT_228" style="&st6;">
<text x="10.628755" y="-14.305663">(CONVERTIBLE)</text>
</g>
<g id="TEXT_229" style="&st6;">
<text x="10.628755" y="-14.451373">REAR SEAT)</text>
</g>
<g id="TEXT_230" style="&st6;">
<text x="10.628755" y="-14.597083">(UNDER LEFT</text>
</g>
<g id="TEXT_231" style="&st6;">
<text x="10.628755" y="-14.742793">(COUPE)</text>
</g>
<g id="TEXT_232" style="&st6;">
<text x="10.628755" y="-14.888503">(LEFT DOOR)</text>
</g>
</g>
<g id="Layer_1_0" style="&Layer_1_0;">
<g id="Lwpline_103">
<path d="M10.8 -14.221 A0.021 0.021 0 0 0 10.8 -14.179 A0.021 0.021 0 0 0 10.8 -14.221 " style="&st36;"/>
</g>
<g id="Lwpline_104">
<path d="M10.726896 -14.249656 L10.726896 -14.150344 " style="&st2;"/>
</g>
<g id="Lwpline_106">
<path d="M10.693793 -14.216552 L10.693793 -14.183448 " style="&st2;"/>
</g>
<g id="INSERT_3">
<g transform="matrix(1 0 0 1 10.799785 -17.113253)">
<use style="&st12;" xlink:href="#SP2_BLK_1_20"/>
</g>
</g>
<g id="INSERT_4">
<g transform="matrix(1 0 0 1 10.799919 -17.347603)">
<use style="&st12;" xlink:href="#SP2_BLK_1_20"/>
</g>
</g>
<g id="Lwpline_115">
<path d="M10.799949 -17.4 L10.799919 -17.347603 " style="&st2;"/>
</g>
<g id="Lwpline_116">
<path d="M10.799785 -17.113253 L10.799755 -17.060856 " style="&st2;"/>
</g>
<g id="Lwpline_117">
<path d="M10.799919 -17.347603 A0.066250621 0.066250621 0 0 1 10.799852 -17.230428 A0.066250621 0.066250621 0 0 0 10.799785 -17.113253 " style="&st2;"/>
</g>
<g id="INSERT_5">
<g transform="matrix(1 0 0 1 7.799785 -17.113253)">
<use style="&st12;" xlink:href="#SP2_BLK_1_20"/>
</g>
</g>
<g id="INSERT_6">
<g transform="matrix(1 0 0 1 7.799919 -17.347603)">
<use style="&st12;" xlink:href="#SP2_BLK_1_20"/>
</g>
</g>
<g id="Lwpline_118">
<path d="M7.799949 -17.4 L7.799919 -17.347603 " style="&st2;"/>
</g>
<g id="Lwpline_119">
<path d="M7.799785 -17.113253 L7.799755 -17.060856 " style="&st2;"/>
</g>
<g id="Lwpline_120">
<path d="M7.799919 -17.347603 A0.066250621 0.066250621 0 0 1 7.799852 -17.230428 A0.066250621 0.066250621 0 0 0 7.799785 -17.113253 " style="&st2;"/>
</g>
<g id="INSERT_7">
<g transform="matrix(1 0 0 1 6.399785 -17.113253)">
<use style="&st12;" xlink:href="#SP2_BLK_1_20"/>
</g>
</g>
<g id="INSERT_8">
<g transform="matrix(1 0 0 1 6.399919 -17.347603)">
<use style="&st12;" xlink:href="#SP2_BLK_1_20"/>
</g>
</g>
<g id="Lwpline_121">
<path d="M6.399949 -17.4 L6.399919 -17.347603 " style="&st2;"/>
</g>
<g id="Lwpline_122">
<path d="M6.399785 -17.113253 L6.399755 -17.060856 " style="&st2;"/>
</g>
<g id="Lwpline_123">
<path d="M6.399919 -17.347603 A0.066250621 0.066250621 0 0 1 6.399852 -17.230428 A0.066250621 0.066250621 0 0 0 6.399785 -17.113253 " style="&st2;"/>
</g>
<g id="Lwpline_124">
<path d="M9.779 -8.4 A0.021 0.021 0 0 0 9.821 -8.4 A0.021 0.021 0 0 0 9.779 -8.4 " style="&st36;"/>
</g>
<g id="INSERT_9">
<g transform="matrix(1 0 0 1 13.999949 -7.8125611)">
<use style="&st12;" xlink:href="#SP2_BLK_1_20"/>
</g>
</g>
<g id="Lwpline_125">
<path d="M13.999949 -7.8761179 L13.999949 -7.7490042 L13.959975 -7.7280392 L13.999975 -7.7065332 L14.04067 -7.684953 L13.96 -7.6425569 L14.040251 -7.6005428 L13.96 -7.5584546 L14 -7.5369485 " style="&st2;"/>
</g>
<g id="Lwpline_126">
<path d="M13.999949 -7.8125611 L13.860617 -7.8125611 L13.860617 -7.6414374 L13.903556 -7.6414374 " style="&st2;"/>
</g>
<polygon id="SOLID_1" style="&st38;" points="13.903538 -7.6088636 13.959975 -7.6414068 13.903575 -7.6740112 13.903575 -7.6740112"/>
<g id="INSERT_10">
<g transform="matrix(1 0 0 1 12.999949 -7.8125611)">
<use style="&st12;" xlink:href="#SP2_BLK_1_20"/>
</g>
</g>
<g id="Lwpline_127">
<path d="M12.999949 -7.8761179 L12.999949 -7.7490042 L12.959975 -7.7280392 L12.999975 -7.7065332 L13.04067 -7.684953 L12.96 -7.6425569 L13.040251 -7.6005428 L12.96 -7.5584546 L13 -7.5369485 " style="&st2;"/>
</g>
<g id="Lwpline_128">
<path d="M12.999949 -7.8125611 L12.860617 -7.8125611 L12.860617 -7.6414374 L12.903556 -7.6414374 " style="&st2;"/>
</g>
<polygon id="SOLID_2" style="&st38;" points="12.903538 -7.6088636 12.959975 -7.6414068 12.903575 -7.6740112 12.903575 -7.6740112"/>
<g id="Lwpline_129">
<path d="M12 -1.979 A0.021 0.021 0 0 0 12 -2.021 A0.021 0.021 0 0 0 12 -1.979 " style="&st36;"/>
</g>
<g id="Lwpline_130">
<path d="M12.073104 -1.9503445 L12.073104 -2.0496555 " style="&st2;"/>
</g>
<g id="Lwpline_132">
<path d="M12.106207 -1.9834482 L12.106207 -2.0165518 " style="&st2;"/>
</g>
<g id="Lwpline_133">
<path d="M10.9328 -1.0992 L10.9664 -1.1328 L11.0336 -1.1328 L11.0672 -1.0992 " style="&st39;"/>
</g>
<g id="Lwpline_134">
<path d="M10.9328 -1.1664 L10.9664 -1.2 L11.0336 -1.2 L11.0672 -1.1664 " style="&st39;"/>
</g>
<g id="Lwpline_135">
<path d="M10.3328 -1.0992 L10.3664 -1.1328 L10.4336 -1.1328 L10.4672 -1.0992 " style="&st39;"/>
</g>
<g id="Lwpline_136">
<path d="M10.3328 -1.1664 L10.3664 -1.2 L10.4336 -1.2 L10.4672 -1.1664 " style="&st39;"/>
</g>
<g id="Lwpline_137">
<path d="M10.876118 -0.40005056 L10.854538 -0.35935556 L10.812142 -0.44002556 L10.770128 -0.35977356 L10.728039 -0.44002556 L10.706533 -0.40002556 L10.684953 -0.35932956 L10.642557 -0.43999956 L10.600543 -0.35974856 L10.558455 -0.43999956 L10.536949 -0.39999956 " style="&st2;"/>
</g>
<g id="Lwpline_138">
<path d="M10.795352 -0.33763456 L10.596135 -0.46826056 " style="&st2;"/>
</g>
<polygon id="SOLID_3" style="&st38;" points="10.77119 -0.33261056 10.795352 -0.33763456 10.839132 -0.30892856 10.839132 -0.30892856"/>
<polygon id="SOLID_4" style="&st38;" points="10.790328 -0.36179656 10.795352 -0.33763456 10.839132 -0.30892856 10.839132 -0.30892856"/>
<g id="Lwpline_139">
<path d="M8.5328 -1.0992 L8.5664 -1.1328 L8.6336 -1.1328 L8.6672 -1.0992 " style="&st39;"/>
</g>
<g id="Lwpline_140">
<path d="M8.5328 -1.1664 L8.5664 -1.2 L8.6336 -1.2 L8.6672 -1.1664 " style="&st39;"/>
</g>
<g id="Lwpline_141">
<path d="M7.9328 -1.0992 L7.9664 -1.1328 L8.0336 -1.1328 L8.0672 -1.0992 " style="&st39;"/>
</g>
<g id="Lwpline_142">
<path d="M7.9328 -1.1664 L7.9664 -1.2 L8.0336 -1.2 L8.0672 -1.1664 " style="&st39;"/>
</g>
<g id="Lwpline_143">
<path d="M8.4761179 -0.40005056 L8.4545379 -0.35935556 L8.4121419 -0.44002556 L8.3701279 -0.35977356 L8.3280389 -0.44002556 L8.3065329 -0.40002556 L8.2849529 -0.35932956 L8.2425569 -0.43999956 L8.2005429 -0.35974856 L8.1584549 -0.43999956 L8.1369489 -0.39999956 " style="&st2;"/>
</g>
<g id="Lwpline_144">
<path d="M8.3953519 -0.33763456 L8.1961349 -0.46826056 " style="&st2;"/>
</g>
<polygon id="SOLID_5" style="&st38;" points="8.3711899 -0.33261056 8.3953519 -0.33763456 8.4391319 -0.30892856 8.4391319 -0.30892856"/>
<polygon id="SOLID_6" style="&st38;" points="8.3903279 -0.36179656 8.3953519 -0.33763456 8.4391319 -0.30892856 8.4391319 -0.30892856"/>
<g id="Lwpline_145">
<path d="M14.123191 -2.9749585 L14.123191 -3.0999585 M14.123191 -3.1624585 L14.123191 -3.2874585 M14.123191 -3.3499585 L14.123191 -3.4261498 L13.998191 -3.4261498 M13.935691 -3.4261498 L13.810691 -3.4261498 M13.748191 -3.4261498 L13.623191 -3.4261498 M13.560691 -3.4261498 L13.478598 -3.4261498 L13.478598 -3.3011498 M13.478598 -3.2386498 L13.478598 -3.1136498 M13.478598 -3.0511498 L13.478598 -2.9749585 L13.603598 -2.9749585 M13.666098 -2.9749585 L13.791098 -2.9749585 M13.853598 -2.9749585 L13.978598 -2.9749585 M14.041098 -2.9749585 L14.123191 -2.9749585 " style="&st2;"/>
</g>
<g id="Lwpline_146">
<path d="M6 -14.779 A0.021 0.021 0 0 0 6 -14.821 A0.021 0.021 0 0 0 6 -14.779 " style="&st36;"/>
</g>
<g id="Lwpline_147">
<path d="M6.0731037 -14.750344 L6.0731037 -14.849656 " style="&st2;"/>
</g>
<g id="Lwpline_149">
<path d="M6.1062073 -14.783448 L6.1062073 -14.816552 " style="&st2;"/>
</g>
<g id="Lwpline_150">
<path d="M4.779 -14.8 A0.021 0.021 0 0 0 4.821 -14.8 A0.021 0.021 0 0 0 4.779 -14.8 " style="&st36;"/>
</g>
<g id="Lwpline_151">
<path d="M14.120401 -9.7791029 A0.021 0.021 0 0 0 14.120401 -9.8211029 A0.021 0.021 0 0 0 14.120401 -9.7791029 " style="&st36;"/>
</g>
<g id="Lwpline_152">
<path d="M14.226608 -9.783551 L14.226608 -9.8166547 " style="&st2;"/>
</g>
<g id="Lwpline_153">
<path d="M14.193504 -9.7504474 L14.193504 -9.8497584 " style="&st2;"/>
</g>
<g id="Lwpline_154">
<path d="M14.160401 -9.7173437 L14.160401 -9.882862 " style="&st2;"/>
</g>
<g id="Lwpline_155">
<path d="M13.969733 -9.8001029 L14.120401 -9.8001029 " style="&st2;"/>
</g>
<g id="Lwpline_156">
<path d="M13.632482 -9.5999494 L13.484272 -9.5999494 " style="&st2;"/>
</g>
<g id="Lwpline_157">
<path d="M13.476809 -9.8902282 L13.476809 -9.3273266 L14.121402 -9.3273266 L14.121402 -9.8902282 L13.476809 -9.8902282 " style="&st2;"/>
</g>
<g id="INSERT_13">
<g transform="matrix(6.1230318e-017 -1 1 6.1230318e-017 13.632482 -9.5999494)">
<use style="&st12;" xlink:href="#S2_BLK_1_28"/>
</g>
</g>
<g id="Lwpline_160">
<path d="M14.120401 -11.379103 A0.021 0.021 0 0 0 14.120401 -11.421103 A0.021 0.021 0 0 0 14.120401 -11.379103 " style="&st36;"/>
</g>
<g id="Lwpline_161">
<path d="M14.226608 -11.383551 L14.226608 -11.416655 " style="&st2;"/>
</g>
<g id="Lwpline_162">
<path d="M14.193504 -11.350447 L14.193504 -11.449758 " style="&st2;"/>
</g>
<g id="Lwpline_163">
<path d="M14.160401 -11.317344 L14.160401 -11.482862 " style="&st2;"/>
</g>
<g id="Lwpline_164">
<path d="M13.969733 -11.400103 L14.120401 -11.400103 " style="&st2;"/>
</g>
<g id="Lwpline_165">
<path d="M13.632482 -11.199949 L13.484272 -11.199949 " style="&st2;"/>
</g>
<g id="Lwpline_166">
<path d="M13.476809 -11.490228 L13.476809 -10.927327 L14.121402 -10.927327 L14.121402 -11.490228 L13.476809 -11.490228 " style="&st2;"/>
</g>
<g id="INSERT_14">
<g transform="matrix(6.1230318e-017 -1 1 6.1230318e-017 13.632482 -11.199949)">
<use style="&st12;" xlink:href="#S2_BLK_1_28"/>
</g>
</g>
<ellipse cx="1.8" cy="-14.6" id="CIRCLE_1" rx="0.16073677" ry="0.16073677" style="&st42;"/>
<ellipse cx="1.8" cy="-14.6" id="CIRCLE_2" rx="0.16073677" ry="0.16073677" style="&st42;"/>
<ellipse cx="1.8" cy="-14.6" id="CIRCLE_3" rx="0.16173677" ry="0.16173677" style="&st42;"/>
<ellipse cx="1.8" cy="-14.6" id="CIRCLE_4" rx="0.16273677" ry="0.16273677" style="&st42;"/>
<ellipse cx="1.8" cy="-14.6" id="CIRCLE_5" rx="0.16373677" ry="0.16373677" style="&st42;"/>
<ellipse cx="1.8" cy="-14.6" id="CIRCLE_6" rx="0.16473677" ry="0.16473677" style="&st42;"/>
<ellipse cx="1.8" cy="-14.6" id="CIRCLE_7" rx="0.16573677" ry="0.16573677" style="&st42;"/>
<ellipse cx="1.8" cy="-14.6" id="CIRCLE_8" rx="0.16673677" ry="0.16673677" style="&st42;"/>
<ellipse cx="1.8" cy="-14.6" id="CIRCLE_9" rx="0.16773677" ry="0.16773677" style="&st42;"/>
<g id="Lwpline_167">
<path d="M1.7583083 -14.551856 L1.7583083 -14.648144 " style="&st2;"/>
</g>
<g id="Lwpline_168">
<path d="M1.6312632 -14.6 L1.9687368 -14.6 " style="&st2;"/>
</g>
<g id="Lwpline_169">
<path d="M1.8341776 -14.50014 L1.8341776 -14.541333 " style="&st2;"/>
</g>
<g id="Lwpline_170">
<path d="M1.7734124 -14.50014 L1.7734124 -14.541333 " style="&st2;"/>
</g>
<polygon id="SOLID_8" style="&st38;" points="1.7526153 -14.499971 1.7942096 -14.500308 1.7737053 -14.464118 1.7737053 -14.464118"/>
<polygon id="SOLID_9" style="&st38;" points="1.8133805 -14.499971 1.8549748 -14.500308 1.8344705 -14.464118 1.8344705 -14.464118"/>
<ellipse cx="1.8" cy="-14.6" id="CIRCLE_10" rx="0.16873677" ry="0.16873677" style="&st42;"/>
<polygon id="SOLID_10" style="&st38;" points="1.8416927 -14.551856 1.7583073 -14.600001 1.8416927 -14.648143 1.8416927 -14.648143"/>
<ellipse cx="1.8" cy="-13" id="CIRCLE_11" rx="0.16073677" ry="0.16073677" style="&st42;"/>
<ellipse cx="1.8" cy="-13" id="CIRCLE_12" rx="0.16073677" ry="0.16073677" style="&st42;"/>
<ellipse cx="1.8" cy="-13" id="CIRCLE_13" rx="0.16173677" ry="0.16173677" style="&st42;"/>
<ellipse cx="1.8" cy="-13" id="CIRCLE_14" rx="0.16273677" ry="0.16273677" style="&st42;"/>
<ellipse cx="1.8" cy="-13" id="CIRCLE_15" rx="0.16373677" ry="0.16373677" style="&st42;"/>
<ellipse cx="1.8" cy="-13" id="CIRCLE_16" rx="0.16473677" ry="0.16473677" style="&st42;"/>
<ellipse cx="1.8" cy="-13" id="CIRCLE_17" rx="0.16573677" ry="0.16573677" style="&st42;"/>
<ellipse cx="1.8" cy="-13" id="CIRCLE_18" rx="0.16673677" ry="0.16673677" style="&st42;"/>
<ellipse cx="1.8" cy="-13" id="CIRCLE_19" rx="0.16773677" ry="0.16773677" style="&st42;"/>
<g id="Lwpline_171">
<path d="M1.7583083 -12.951856 L1.7583083 -13.048144 " style="&st2;"/>
</g>
<g id="Lwpline_172">
<path d="M1.6312632 -13 L1.9687368 -13 " style="&st2;"/>
</g>
<g id="Lwpline_173">
<path d="M1.8341776 -12.90014 L1.8341776 -12.941333 " style="&st2;"/>
</g>
<g id="Lwpline_174">
<path d="M1.7734124 -12.90014 L1.7734124 -12.941333 " style="&st2;"/>
</g>
<polygon id="SOLID_11" style="&st38;" points="1.7526153 -12.899971 1.7942096 -12.900308 1.7737053 -12.864118 1.7737053 -12.864118"/>
<polygon id="SOLID_12" style="&st38;" points="1.8133805 -12.899971 1.8549748 -12.900308 1.8344705 -12.864118 1.8344705 -12.864118"/>
<ellipse cx="1.8" cy="-13" id="CIRCLE_20" rx="0.16873677" ry="0.16873677" style="&st42;"/>
<polygon id="SOLID_13" style="&st38;" points="1.8416927 -12.951856 1.7583073 -13.000001 1.8416927 -13.048143 1.8416927 -13.048143"/>
<ellipse cx="1.8" cy="-12.2" id="CIRCLE_21" rx="0.16073677" ry="0.16073677" style="&st42;"/>
<ellipse cx="1.8" cy="-12.2" id="CIRCLE_22" rx="0.16073677" ry="0.16073677" style="&st42;"/>
<ellipse cx="1.8" cy="-12.2" id="CIRCLE_23" rx="0.16173677" ry="0.16173677" style="&st42;"/>
<ellipse cx="1.8" cy="-12.2" id="CIRCLE_24" rx="0.16273677" ry="0.16273677" style="&st42;"/>
<ellipse cx="1.8" cy="-12.2" id="CIRCLE_25" rx="0.16373677" ry="0.16373677" style="&st42;"/>
<ellipse cx="1.8" cy="-12.2" id="CIRCLE_26" rx="0.16473677" ry="0.16473677" style="&st42;"/>
<ellipse cx="1.8" cy="-12.2" id="CIRCLE_27" rx="0.16573677" ry="0.16573677" style="&st42;"/>
<ellipse cx="1.8" cy="-12.2" id="CIRCLE_28" rx="0.16673677" ry="0.16673677" style="&st42;"/>
<ellipse cx="1.8" cy="-12.2" id="CIRCLE_29" rx="0.16773677" ry="0.16773677" style="&st42;"/>
<g id="Lwpline_175">
<path d="M1.7583083 -12.151856 L1.7583083 -12.248144 " style="&st2;"/>
</g>
<g id="Lwpline_176">
<path d="M1.6312632 -12.2 L1.9687368 -12.2 " style="&st2;"/>
</g>
<g id="Lwpline_177">
<path d="M1.8341776 -12.10014 L1.8341776 -12.141333 " style="&st2;"/>
</g>
<g id="Lwpline_178">
<path d="M1.7734124 -12.10014 L1.7734124 -12.141333 " style="&st2;"/>
</g>
<polygon id="SOLID_14" style="&st38;" points="1.7526153 -12.099971 1.7942096 -12.100308 1.7737053 -12.064118 1.7737053 -12.064118"/>
<polygon id="SOLID_15" style="&st38;" points="1.8133805 -12.099971 1.8549748 -12.100308 1.8344705 -12.064118 1.8344705 -12.064118"/>
<ellipse cx="1.8" cy="-12.2" id="CIRCLE_30" rx="0.16873677" ry="0.16873677" style="&st42;"/>
<polygon id="SOLID_16" style="&st38;" points="1.8416927 -12.151856 1.7583073 -12.200001 1.8416927 -12.248143 1.8416927 -12.248143"/>
<g id="Lwpline_179">
<path d="M1.8 -13.9775 A0.1775 0.1775 0 0 0 1.8 -13.6225 A0.1775 0.1775 0 0 0 1.8 -13.9775 " style="&st2;"/>
</g>
<g id="Lwpline_180">
<path d="M1.701994 -13.8 L1.62313 -13.8 " style="&st2;"/>
</g>
<g id="Lwpline_181">
<path d="M1.977717 -13.8 L1.898373 -13.8 A0.059654612 0.059654612 0 1 0 1.800184 -13.75311 A0.059655376 0.059655376 0 1 0 1.701978 -13.798636 " style="&st2;"/>
</g>
<g id="INSERT_15">
<g transform="matrix(1 0 0 1 9.199785 -17.113253)">
<use style="&st12;" xlink:href="#SP2_BLK_1_20"/>
</g>
</g>
<g id="INSERT_16">
<g transform="matrix(1 0 0 1 9.199919 -17.347603)">
<use style="&st12;" xlink:href="#SP2_BLK_1_20"/>
</g>
</g>
<g id="Lwpline_182">
<path d="M9.199949 -17.4 L9.199919 -17.347603 " style="&st2;"/>
</g>
<g id="Lwpline_183">
<path d="M9.199785 -17.113253 L9.199755 -17.060856 " style="&st2;"/>
</g>
<g id="Lwpline_184">
<path d="M9.199919 -17.347603 A0.066250621 0.066250621 0 0 1 9.199852 -17.230428 A0.066250621 0.066250621 0 0 0 9.199785 -17.113253 " style="&st2;"/>
</g>
<g id="Lwpline_185">
<path d="M9.2672 -16.8336 L9.2336 -16.8 L9.1664 -16.8 L9.1328 -16.8336 " style="&st39;"/>
</g>
<g id="Lwpline_186">
<path d="M9.145981 -16.92218 L9.2 -16.868161 L9.254019 -16.92218 " style="&st2;"/>
</g>
<g id="Lwpline_187">
<path d="M3.5664 -14.6672 L3.6 -14.6336 L3.6 -14.5664 L3.5664 -14.5328 " style="&st39;"/>
</g>
<g id="Lwpline_188">
<path d="M3.5664 -14.4672 L3.6 -14.4336 L3.6 -14.3664 L3.5664 -14.3328 " style="&st39;"/>
</g>
<g id="Lwpline_189">
<path d="M3.5664 -14.2672 L3.6 -14.2336 L3.6 -14.1664 L3.5664 -14.1328 " style="&st39;"/>
</g>
<g id="Lwpline_190">
<path d="M3.5664 -14.0672 L3.6 -14.0336 L3.6 -13.9664 L3.5664 -13.9328 " style="&st39;"/>
</g>
<g id="Lwpline_191">
<path d="M3.5664 -13.8672 L3.6 -13.8336 L3.6 -13.7664 L3.5664 -13.7328 " style="&st39;"/>
</g>
<g id="Lwpline_192">
<path d="M3.5664 -14.8672 L3.6 -14.8336 L3.6 -14.7664 L3.5664 -14.7328 " style="&st39;"/>
</g>
<g id="Lwpline_193">
<path d="M3.5664 -13.6672 L3.6 -13.6336 L3.6 -13.5664 L3.5664 -13.5328 " style="&st39;"/>
</g>
<g id="Lwpline_194">
<path d="M3.5664 -13.4672 L3.6 -13.4336 L3.6 -13.3664 L3.5664 -13.3328 " style="&st39;"/>
</g>
<g id="Lwpline_195">
<path d="M3.5664 -13.2672 L3.6 -13.2336 L3.6 -13.1664 L3.5664 -13.1328 " style="&st39;"/>
</g>
<g id="Lwpline_196">
<path d="M3.5664 -13.0672 L3.6 -13.0336 L3.6 -12.9664 L3.5664 -12.9328 " style="&st39;"/>
</g>
<g id="Lwpline_197">
<path d="M3.5664 -12.8672 L3.6 -12.8336 L3.6 -12.7664 L3.5664 -12.7328 " style="&st39;"/>
</g>
<g id="Lwpline_198">
<path d="M3.5664 -12.6672 L3.6 -12.6336 L3.6 -12.5664 L3.5664 -12.5328 " style="&st39;"/>
</g>
<g id="Lwpline_199">
<path d="M3.5664 -12.4672 L3.6 -12.4336 L3.6 -12.3664 L3.5664 -12.3328 " style="&st39;"/>
</g>
<g id="Lwpline_200">
<path d="M3.5664 -12.2672 L3.6 -12.2336 L3.6 -12.1664 L3.5664 -12.1328 " style="&st39;"/>
</g>
<g id="Lwpline_201">
<path d="M3.5664 -12.0672 L3.6 -12.0336 L3.6 -11.9664 L3.5664 -11.9328 " style="&st39;"/>
</g>
<g id="Lwpline_202">
<path d="M3.5664 -11.8672 L3.6 -11.8336 L3.6 -11.7664 L3.5664 -11.7328 " style="&st39;"/>
</g>
<g id="Lwpline_203">
<path d="M3.5664 -11.6672 L3.6 -11.6336 L3.6 -11.5664 L3.5664 -11.5328 " style="&st39;"/>
</g>
<g id="Lwpline_204">
<path d="M3.5664 -11.2672 L3.6 -11.2336 L3.6 -11.1664 L3.5664 -11.1328 " style="&st39;"/>
</g>
<g id="Lwpline_205">
<path d="M3.5664 -11.0672 L3.6 -11.0336 L3.6 -10.9664 L3.5664 -10.9328 " style="&st39;"/>
</g>
<g id="Lwpline_206">
<path d="M3.5664 -10.8672 L3.6 -10.8336 L3.6 -10.7664 L3.5664 -10.7328 " style="&st39;"/>
</g>
<g id="Lwpline_207">
<path d="M3.5664 -10.6672 L3.6 -10.6336 L3.6 -10.5664 L3.5664 -10.5328 " style="&st39;"/>
</g>
<g id="Lwpline_208">
<path d="M3.5664 -10.4672 L3.6 -10.4336 L3.6 -10.3664 L3.5664 -10.3328 " style="&st39;"/>
</g>
<g id="Lwpline_209">
<path d="M3.5664 -11.4672 L3.6 -11.4336 L3.6 -11.3664 L3.5664 -11.3328 " style="&st39;"/>
</g>
<g id="Lwpline_210">
<path d="M3.5664 -10.2672 L3.6 -10.2336 L3.6 -10.1664 L3.5664 -10.1328 " style="&st39;"/>
</g>
<g id="Lwpline_211">
<path d="M3.5664 -4.8672 L3.6 -4.8336 L3.6 -4.7664 L3.5664 -4.7328 " style="&st39;"/>
</g>
<g id="Lwpline_212">
<path d="M3.5664 -4.6672 L3.6 -4.6336 L3.6 -4.5664 L3.5664 -4.5328 " style="&st39;"/>
</g>
<g id="Lwpline_213">
<path d="M3.5664 -4.4672 L3.6 -4.4336 L3.6 -4.3664 L3.5664 -4.3328 " style="&st39;"/>
</g>
<g id="Lwpline_214">
<path d="M3.5664 -5.0672 L3.6 -5.0336 L3.6 -4.9664 L3.5664 -4.9328 " style="&st39;"/>
</g>
<g id="Lwpline_215">
<path d="M3.5664 -5.2672 L3.6 -5.2336 L3.6 -5.1664 L3.5664 -5.1328 " style="&st39;"/>
</g>
<g id="Lwpline_216">
<path d="M3.5664 -5.4672 L3.6 -5.4336 L3.6 -5.3664 L3.5664 -5.3328 " style="&st39;"/>
</g>
<g id="Lwpline_217">
<path d="M3.5664 -5.6672 L3.6 -5.6336 L3.6 -5.5664 L3.5664 -5.5328 " style="&st39;"/>
</g>
<g id="Lwpline_218">
<path d="M3.5664 -5.8672 L3.6 -5.8336 L3.6 -5.7664 L3.5664 -5.7328 " style="&st39;"/>
</g>
<g id="Lwpline_219">
<path d="M3.5664 -4.2672 L3.6 -4.2336 L3.6 -4.1664 L3.5664 -4.1328 " style="&st39;"/>
</g>
<g id="Lwpline_220">
<path d="M3.5664 -4.0672 L3.6 -4.0336 L3.6 -3.9664 L3.5664 -3.9328 " style="&st39;"/>
</g>
<g id="Lwpline_221">
<path d="M3.5664 -3.8672 L3.6 -3.8336 L3.6 -3.7664 L3.5664 -3.7328 " style="&st39;"/>
</g>
<g id="Lwpline_222">
<path d="M3.5664 -3.6672 L3.6 -3.6336 L3.6 -3.5664 L3.5664 -3.5328 " style="&st39;"/>
</g>
<g id="Lwpline_223">
<path d="M3.045981 -12.945981 L3.1 -13 L3.045981 -13.054019 " style="&st2;"/>
</g>
<g id="Lwpline_224">
<path d="M3.045981 -13.745981 L3.1 -13.8 L3.045981 -13.854019 " style="&st2;"/>
</g>
<g id="Lwpline_225">
<path d="M3.045981 -14.545981 L3.1 -14.6 L3.045981 -14.654019 " style="&st2;"/>
</g>
<g id="Lwpline_226">
<path d="M3.045981 -12.145981 L3.1 -12.2 L3.045981 -12.254019 " style="&st2;"/>
</g>
<g id="Lwpline_227">
<path d="M13.4336 -11.1328 L13.4 -11.1664 L13.4 -11.2336 L13.4336 -11.2672 " style="&st39;"/>
</g>
<g id="Lwpline_228">
<path d="M13.540918 -11.254019 L13.486899 -11.2 L13.540918 -11.145981 " style="&st2;"/>
</g>
<g id="Lwpline_229">
<path d="M13.4336 -9.5328 L13.4 -9.5664 L13.4 -9.6336 L13.4336 -9.6672 " style="&st39;"/>
</g>
<g id="Lwpline_230">
<path d="M13.540918 -9.654019 L13.486899 -9.6 L13.540918 -9.545981 " style="&st2;"/>
</g>
<g id="Lwpline_231">
<path d="M13.2336 -12.7328 L13.2 -12.7664 L13.2 -12.8336 L13.2336 -12.8672 " style="&st39;"/>
</g>
<g id="Lwpline_232">
<path d="M13.2336 -12.5328 L13.2 -12.5664 L13.2 -12.6336 L13.2336 -12.6672 " style="&st39;"/>
</g>
<polygon id="SOLID_17" style="&st38;" points="5.399964 -5.334852 5.512836 -5.399939 5.400036 -5.465148 5.400036 -5.465148"/>
<polygon id="SOLID_18" style="&st38;" points="5.399964 -13.734852 5.512836 -13.799939 5.400036 -13.865148 5.400036 -13.865148"/>
<polygon id="SOLID_19" style="&st38;" points="5.399964 -12.134852 5.512836 -12.199939 5.400036 -12.265148 5.400036 -12.265148"/>
<polygon id="SOLID_20" style="&st38;" points="5.399964 -4.934852 5.512836 -4.999939 5.400036 -5.065148 5.400036 -5.065148"/>
<g id="Lwpline_233">
<path d="M13.4336 -5.3328 L13.4 -5.3664 L13.4 -5.4336 L13.4336 -5.4672 " style="&st39;"/>
</g>
<g id="Lwpline_234">
<path d="M13.4336 -4.9328 L13.4 -4.9664 L13.4 -5.0336 L13.4336 -5.0672 " style="&st39;"/>
</g>
<g id="Lwpline_235">
<path d="M13.4336 -4.5328 L13.4 -4.5664 L13.4 -4.6336 L13.4336 -4.6672 " style="&st39;"/>
</g>
<g id="Lwpline_236">
<path d="M13.4336 -5.5328 L13.4 -5.5664 L13.4 -5.6336 L13.4336 -5.6672 " style="&st39;"/>
</g>
<g id="Lwpline_237">
<path d="M13.4336 -5.1328 L13.4 -5.1664 L13.4 -5.2336 L13.4336 -5.2672 " style="&st39;"/>
</g>
<g id="Lwpline_238">
<path d="M13.4336 -5.7328 L13.4 -5.7664 L13.4 -5.8336 L13.4336 -5.8672 " style="&st39;"/>
</g>
<g id="Lwpline_239">
<path d="M13.4336 -4.7328 L13.4 -4.7664 L13.4 -4.8336 L13.4336 -4.8672 " style="&st39;"/>
</g>
<g id="Lwpline_240">
<path d="M6.4672 -16.8336 L6.4336 -16.8 L6.3664 -16.8 L6.3328 -16.8336 " style="&st39;"/>
</g>
<g id="Lwpline_241">
<path d="M6.345981 -16.92218 L6.4 -16.868161 L6.454019 -16.92218 " style="&st2;"/>
</g>
<g id="Lwpline_242">
<path d="M7.8672 -16.8336 L7.8336 -16.8 L7.7664 -16.8 L7.7328 -16.8336 " style="&st39;"/>
</g>
<g id="Lwpline_243">
<path d="M7.745981 -16.92218 L7.8 -16.868161 L7.854019 -16.92218 " style="&st2;"/>
</g>
<polygon id="SOLID_21" style="&st38;" points="5.399964 -13.534852 5.512836 -13.599939 5.400036 -13.665148 5.400036 -13.665148"/>
<g id="Lwpline_244">
<path d="M3.5664 -9.8672 L3.6 -9.8336 L3.6 -9.7664 L3.5664 -9.7328 " style="&st39;"/>
</g>
<g id="Lwpline_245">
<path d="M3.5664 -10.0672 L3.6 -10.0336 L3.6 -9.9664 L3.5664 -9.9328 " style="&st39;"/>
</g>
<polygon id="SOLID_22" style="&st38;" points="5.399964 -9.734852 5.512836 -9.799939 5.400036 -9.865148 5.400036 -9.865148"/>
<polygon id="SOLID_23" style="&st38;" points="5.399964 -12.334852 5.512836 -12.399939 5.400036 -12.465148 5.400036 -12.465148"/>
<polygon id="SOLID_24" style="&st38;" points="5.399964 -5.134852 5.512836 -5.199939 5.400036 -5.265148 5.400036 -5.265148"/>
<g id="Lwpline_246">
<path d="M10.8672 -16.8336 L10.8336 -16.8 L10.7664 -16.8 L10.7328 -16.8336 " style="&st39;"/>
</g>
<g id="Lwpline_247">
<path d="M10.745981 -16.92218 L10.8 -16.868161 L10.854019 -16.92218 " style="&st2;"/>
</g>
<g id="Lwpline_248">
<path d="M13.2336 -13.9328 L13.2 -13.9664 L13.2 -14.0336 L13.2336 -14.0672 " style="&st39;"/>
</g>
<g id="Lwpline_249">
<path d="M13.2336 -14.1328 L13.2 -14.1664 L13.2 -14.2336 L13.2336 -14.2672 " style="&st39;"/>
</g>
<g id="Lwpline_250">
<path d="M13.2336 -14.3328 L13.2 -14.3664 L13.2 -14.4336 L13.2336 -14.4672 " style="&st39;"/>
</g>
<g id="Lwpline_251">
<path d="M12.060233 -8.4 L12.114252 -8.454019 " style="&st2;"/>
</g>
<g id="Lwpline_252">
<path d="M12.114252 -8.345981 L12.060233 -8.4 " style="&st2;"/>
</g>
<g id="Lwpline_253">
<path d="M12.060233 -7 L12.114252 -7.054019 " style="&st2;"/>
</g>
<g id="Lwpline_254">
<path d="M12.114252 -6.945981 L12.060233 -7 " style="&st2;"/>
</g>
<g id="Lwpline_255">
<path d="M12 -8.3664 L12.0336 -8.3328 " style="&st2;"/>
</g>
<g id="Lwpline_256">
<path d="M12 -8.4336 L12 -8.3664 " style="&st2;"/>
</g>
<g id="Lwpline_257">
<path d="M12.0336 -8.4672 L12 -8.4336 " style="&st2;"/>
</g>
<g id="Lwpline_258">
<path d="M12 -6.9664 L12.0336 -6.9328 " style="&st2;"/>
</g>
<g id="Lwpline_259">
<path d="M12 -7.0336 L12 -6.9664 " style="&st2;"/>
</g>
<g id="Lwpline_260">
<path d="M12.0336 -7.0672 L12 -7.0336 " style="&st2;"/>
</g>
<g id="Lwpline_261">
<path d="M12 -7.3664 L12.0336 -7.3328 " style="&st2;"/>
</g>
<g id="Lwpline_262">
<path d="M12 -7.4336 L12 -7.3664 " style="&st2;"/>
</g>
<g id="Lwpline_263">
<path d="M12.0336 -7.4672 L12 -7.4336 " style="&st2;"/>
</g>
<g id="Lwpline_264">
<path d="M12.060233 -7.4 L12.114252 -7.454019 " style="&st2;"/>
</g>
<g id="Lwpline_265">
<path d="M12.114252 -7.345981 L12.060233 -7.4 " style="&st2;"/>
</g>
<g id="Lwpline_266">
<path d="M12.060233 -8 L12.114252 -8.054019 " style="&st2;"/>
</g>
<g id="Lwpline_267">
<path d="M12.114252 -7.945981 L12.060233 -8 " style="&st2;"/>
</g>
<g id="Lwpline_268">
<path d="M12 -7.9664 L12.0336 -7.9328 " style="&st2;"/>
</g>
<g id="Lwpline_269">
<path d="M12 -8.0336 L12 -7.9664 " style="&st2;"/>
</g>
<g id="Lwpline_270">
<path d="M12.0336 -8.0672 L12 -8.0336 " style="&st2;"/>
</g>
<g id="Lwpline_271">
<path d="M13.4 -3.1664 L13.4336 -3.1328 " style="&st2;"/>
</g>
<g id="Lwpline_272">
<path d="M13.4 -3.2336 L13.4 -3.1664 " style="&st2;"/>
</g>
<g id="Lwpline_273">
<path d="M13.4336 -3.2672 L13.4 -3.2336 " style="&st2;"/>
</g>
</g>
</g>
</svg>
